<svg width="136" height="36" fill="none" xmlns="http://www.w3.org/2000/svg"><path d="M12.109 35.01c1.846.641 3.828.99 5.891.99 9.941 0 18-8.096 18-18.083A18.09 18.09 0 0024.67 1.115c1.287 3.08.678 6.582-1.687 9.854-3.574 4.943-9.027 8.1-14.124 10.028a46.166 46.166 0 01-8.07 2.228c1.422 4.663 3.635 7.378 8.684 6.82 3.346-.37 7.24-2.15 11.234-6.27l-2.196-1.748 10.33-4.355-1.943 11.033-2.005-1.597c-4.12 4.377-8.49 6.93-12.784 7.901z" fill="#966CEE"/><path d="M15.082.07C6.529 1.47 0 8.928 0 17.917v.022a40.862 40.862 0 006.985-1.942c4.586-1.734 8.969-4.398 11.695-8.168 2.107-2.914 1.026-8.516-3.598-7.76z" fill="#966CEE"/><path d="M59.832 23.736v2.904H48V9.6h11.616v2.904h-8.304v4.104h7.176v2.688h-7.176v4.44h8.52zm1.268-3.384c0-1.216.24-2.312.72-3.288.48-.992 1.144-1.776 1.992-2.352.848-.576 1.816-.864 2.904-.864.928 0 1.76.232 2.496.696.752.448 1.336 1.024 1.752 1.728V9.12h3.216v13.92c0 .336.056.576.168.72.112.144.304.232.576.264v2.616c-.56.112-1.016.168-1.368.168-.576 0-1.056-.144-1.44-.432a1.585 1.585 0 01-.624-1.128l-.048-.792a4.666 4.666 0 01-1.896 1.8 5.202 5.202 0 01-2.472.624 5.71 5.71 0 01-2.4-.504 5.997 5.997 0 01-1.896-1.392 6.716 6.716 0 01-1.248-2.064 7.525 7.525 0 01-.432-2.568zm9.864 1.68v-3a3.387 3.387 0 00-.768-1.248 4.058 4.058 0 00-1.176-.864 2.794 2.794 0 00-1.296-.336 2.87 2.87 0 00-1.344.312c-.4.208-.752.488-1.056.84-.288.352-.512.76-.672 1.224a4.911 4.911 0 00-.216 1.464c0 .512.08 1 .24 1.464a3.589 3.589 0 001.848 1.968c.432.192.896.288 1.392.288.304 0 .608-.048.912-.144.32-.112.616-.256.888-.432.288-.192.536-.416.744-.672.224-.272.392-.56.504-.864zm21.926-7.968h3.048L90.682 26.64h-2.688l-2.112-5.4-2.064 5.4h-2.712l-5.232-12.576h3.024l3.744 9.504 1.464-4.104-2.184-5.376h2.664l1.296 3.84 1.32-3.84h2.664l-2.184 5.376 1.488 4.104 3.72-9.504zm4.532 12.576V14.064h3.216V26.64h-3.216zm0-14.328V9.12h3.216v3.192h-3.216zm11.974 14.568c-1.024 0-1.944-.168-2.76-.504a6.244 6.244 0 01-2.088-1.44 6.976 6.976 0 01-1.344-2.112 6.778 6.778 0 01-.456-2.472c0-1.184.264-2.264.792-3.24a6.197 6.197 0 012.304-2.376c.992-.592 2.168-.888 3.528-.888 1.36 0 2.528.296 3.504.888.976.592 1.704 1.368 2.184 2.328l-3.144.96a2.738 2.738 0 00-1.08-1.056 2.946 2.946 0 00-1.488-.384c-.608 0-1.168.16-1.68.48-.496.304-.888.744-1.176 1.32-.288.56-.432 1.216-.432 1.968 0 .736.144 1.392.432 1.968.304.56.704 1.008 1.2 1.344a2.99 2.99 0 001.656.48c.384 0 .744-.064 1.08-.192.352-.128.664-.304.936-.528.272-.224.472-.48.6-.768l3.144.96a5.085 5.085 0 01-1.272 1.68 6.075 6.075 0 01-1.944 1.176c-.736.272-1.568.408-2.496.408zm6.826-3.96c0-.816.224-1.528.672-2.136.464-.624 1.104-1.104 1.92-1.44.816-.336 1.752-.504 2.808-.504.528 0 1.064.04 1.608.12a5.51 5.51 0 011.416.384v-.672c0-.8-.24-1.416-.72-1.848-.464-.432-1.16-.648-2.088-.648-.688 0-1.344.12-1.968.36-.624.24-1.28.592-1.968 1.056l-1.032-2.112c.832-.544 1.68-.952 2.544-1.224.88-.272 1.8-.408 2.76-.408 1.792 0 3.184.448 4.176 1.344 1.008.896 1.512 2.176 1.512 3.84v4.008c0 .336.056.576.168.72.128.144.328.232.6.264v2.616c-.288.048-.552.088-.792.12a4.164 4.164 0 01-.576.048c-.64 0-1.128-.144-1.464-.432a1.86 1.86 0 01-.6-1.056l-.072-.648a5.498 5.498 0 01-2.04 1.632 5.805 5.805 0 01-2.496.576c-.832 0-1.584-.168-2.256-.504a4.17 4.17 0 01-1.56-1.416 3.863 3.863 0 01-.552-2.04zm7.824.648a3.38 3.38 0 00.432-.576c.112-.192.168-.368.168-.528v-1.272a5.96 5.96 0 00-1.248-.36 6.08 6.08 0 00-1.272-.144c-.832 0-1.52.184-2.064.552-.528.352-.792.824-.792 1.416 0 .32.088.624.264.912.176.288.432.52.768.696.336.176.736.264 1.2.264.48 0 .952-.088 1.416-.264.464-.192.84-.424 1.128-.696z" fill="#392B4B"/></svg>