<svg width="32" height="32" viewBox="0 0 32 32" fill="none" xmlns="http://www.w3.org/2000/svg">
<path d="M16.6667 23.3333L14.9351 8M16.6667 23.3333H12M16.6667 23.3333L13.5455 27.4545M14.9351 8V8C14.6072 5.70482 12.6415 4 10.323 4H9.01395C6.24708 4 4.00626 6.24708 4.01397 9.01393L4.03998 18.3473C4.04766 21.1032 6.28398 23.3333 9.03996 23.3333H12M14.9351 8H22.961C25.7174 8 27.9538 10.2307 27.961 12.987L27.987 22.987C27.9942 25.7535 25.7535 28 22.987 28H15.5641C14.2113 28 13.0258 27.0945 12.6698 25.7894L12 23.3333" stroke="#966CEE"/>
<path d="M7.33331 17.3333L7.88887 14.4762M12 17.3333L11.4444 14.4762M11.4444 14.4762L10.5929 10.0968C10.5067 9.65341 10.1183 9.33331 9.66665 9.33331V9.33331C9.21496 9.33331 8.82663 9.65341 8.74041 10.0968L7.88887 14.4762M11.4444 14.4762H7.88887" stroke="#CAC3F8" stroke-linecap="round"/>
<path d="M18.6667 15.3333H19.7778M25.3334 15.3333H24.2222M22 15.3333L22 14M22 15.3333H24.2222M22 15.3333H19.7778M24.2222 15.3333C23.7593 16.7302 22.2222 20.0762 19.3334 21.3333M19.7778 15.3333C20.0556 16.5556 22.1667 20.0238 24.6667 21.3333" stroke="#CAC3F8" stroke-linecap="round"/>
</svg>
