<svg width="32" height="32" viewBox="0 0 32 32" fill="none" xmlns="http://www.w3.org/2000/svg">
<circle cx="16" cy="14" r="2.83333" stroke="#CAC3F8"/>
<path d="M18.6513 28.1818L16 31.2371L13.3487 28.1818C12.6086 27.3289 12.5354 26.0959 13.1438 25.1667H18.8563C19.4646 26.0959 19.3915 27.3289 18.6513 28.1818Z" stroke="#CAC3F8"/>
<path d="M15.9958 0.589439C18.2311 1.97169 20.0124 3.94688 21.3753 6.16667H10.8754C12.2088 3.94502 13.9129 1.97077 15.9958 0.589439ZM10.2871 7.16667H21.9527C23.805 10.5798 24.7131 14.385 24.8221 17.3472C24.8782 18.8698 24.7216 20.1311 24.4021 20.9908C24.0756 21.869 23.6545 22.1667 23.2531 22.1667H23.2298H23.2065H23.1831H23.1597H23.1362H23.1127H23.0891H23.0654H23.0417H23.0179H22.994H22.9701H22.9462H22.9221H22.8981H22.8739H22.8497H22.8255H22.8012H22.7768H22.7524H22.7279H22.7034H22.6788H22.6542H22.6295H22.6048H22.58H22.5551H22.5302H22.5053H22.4803H22.4552H22.4301H22.4049H22.3797H22.3544H22.3291H22.3037H22.2783H22.2528H22.2273H22.2017H22.1761H22.1504H22.1246H22.0989H22.073H22.0471H22.0212H21.9952H21.9692H21.9431H21.917H21.8909H21.8646H21.8384H21.8121H21.7857H21.7593H21.7329H21.7064H21.6798H21.6532H21.6266H21.5999H21.5732H21.5464H21.5196H21.4928H21.4659H21.4389H21.4119H21.3849H21.3578H21.3307H21.3035H21.2763H21.2491H21.2218H21.1945H21.1671H21.1397H21.1123H21.0848H21.0572H21.0297H21.0021H20.9744H20.9467H20.919H20.8912H20.8634H20.8356H20.8077H20.7798H20.7518H20.7238H20.6958H20.6677H20.6396H20.6114H20.5833H20.555H20.5268H20.4985H20.4702H20.4418H20.4134H20.385H20.3565H20.328H20.2995H20.2709H20.2423H20.2137H20.185H20.1563H20.1276H20.0988H20.07H20.0412H20.0123H19.9834H19.9545H19.9256H19.8966H19.8676H19.8385H19.8095H19.7803H19.7512H19.7221H19.6929H19.6636H19.6344H19.6051H19.5758H19.5465H19.5171H19.4877H19.4583H19.4289H19.3994H19.3699H19.3404H19.3108H19.2812H19.2516H19.222H19.1924H19.1627H19.133H19.1033H19.0735H19.0438H19.014H18.9841H18.9543H18.9244H18.8945H18.8646H18.8347H18.8047H18.7748H18.7448H18.7148H18.6847H18.6547H18.6246H18.5945H18.5643H18.5342H18.504H18.4739H18.4437H18.4134H18.3832H18.353H18.3227H18.2924H18.2621H18.2318H18.2014H18.171H18.1407H18.1103H18.0799H18.0494H18.019H17.9885H17.9581H17.9276H17.8971H17.8665H17.836H17.8055H17.7749H17.7443H17.7137H17.6831H17.6525H17.6219H17.5913H17.5606H17.5299H17.4993H17.4686H17.4379H17.4072H17.3765H17.3457H17.315H17.2842H17.2535H17.2227H17.1919H17.1611H17.1303H17.0995H17.0687H17.0379H17.007H16.9762H16.9454H16.9145H16.8836H16.8528H16.8219H16.791H16.7601H16.7292H16.6983H16.6674H16.6365H16.6056H16.5747H16.5438H16.5128H16.4819H16.451H16.42H16.3891H16.3581H16.3272H16.2962H16.2653H16.2343H16.2034H16.1724H16.1414H16.1105H16.0795H16.0485H16.0176H15.9866H15.9557H15.9247H15.8937H15.8628H15.8318H15.8008H15.7699H15.7389H15.708H15.677H15.6461H15.6151H15.5842H15.5532H15.5223H15.4913H15.4604H15.4295H15.3986H15.3676H15.3367H15.3058H15.2749H15.244H15.2131H15.1822H15.1513H15.1205H15.0896H15.0587H15.0279H14.997H14.9662H14.9354H14.9045H14.8737H14.8429H14.8121H14.7813H14.7505H14.7198H14.689H14.6583H14.6275H14.5968H14.5661H14.5353H14.5046H14.474H14.4433H14.4126H14.382H14.3513H14.3207H14.2901H14.2595H14.2289H14.1983H14.1678H14.1372H14.1067H14.0762H14.0457H14.0152H13.9847H13.9542H13.9238H13.8934H13.863H13.8326H13.8022H13.7718H13.7415H13.7112H13.6808H13.6506H13.6203H13.59H13.5598H13.5296H13.4994H13.4692H13.439H13.4089H13.3788H13.3487H13.3186H13.2885H13.2585H13.2285H13.1985H13.1685H13.1385H13.1086H13.0787H13.0488H13.0189H12.9891H12.9593H12.9295H12.8997H12.87H12.8402H12.8105H12.7809H12.7512H12.7216H12.692H12.6624H12.6329H12.6033H12.5738H12.5444H12.5149H12.4855H12.4561H12.4268H12.3974H12.3681H12.3388H12.3096H12.2804H12.2512H12.222H12.1929H12.1638H12.1347H12.1057H12.0766H12.0477H12.0187H11.9898H11.9609H11.932H11.9032H11.8744H11.8456H11.8169H11.7882H11.7596H11.7309H11.7023H11.6738H11.6452H11.6167H11.5883H11.5598H11.5314H11.5031H11.4747H11.4465H11.4182H11.39H11.3618H11.3337H11.3055H11.2775H11.2494H11.2214H11.1935H11.1656H11.1377H11.1098H11.082H11.0543H11.0265H10.9988H10.9712H10.9436H10.916H10.8885H10.861H10.8335H10.8061H10.7788H10.7514H10.7241H10.6969H10.6697H10.6425H10.6154H10.5883H10.5613H10.5343H10.5074H10.4805H10.4536H10.4268H10.4H10.3733H10.3466H10.32H10.2934H10.2669H10.2404H10.2139H10.1875H10.1612H10.1349H10.1086H10.0824H10.0562H10.0301H10.004H9.97799H9.95201H9.92609H9.90021H9.87438H9.8486H9.82286H9.79718H9.77155H9.74597H9.72044H9.69496H9.66953H9.64416H9.61883H9.59356H9.56833H9.54317H9.51805H9.49298H9.46797H9.44301H9.41811H9.39326H9.36846H9.34372H9.31903H9.29439H9.26981H9.24529H9.22082H9.1964H9.17205H9.14774H9.1235H9.09931H9.07517H9.0511H9.02708H9.00312H8.97921H8.95537H8.93158H8.90785H8.88418H8.86057H8.83702H8.81352H8.79009H8.76671H8.7434H8.72015C8.3158 22.1667 7.89022 21.8634 7.56766 20.9691C7.25227 20.0946 7.1076 18.8127 7.18901 17.2692C7.34473 14.3165 8.31998 10.5469 10.2871 7.16667Z" stroke="#966CEE"/>
<path d="M11.1466 23.3551L11.4641 22.6884C11.7128 22.1661 12.2398 21.8333 12.8184 21.8333H19.1817C19.7602 21.8333 20.2872 22.1661 20.5359 22.6884L20.8534 23.3551C21.3274 24.3505 20.6016 25.5 19.4991 25.5H12.5009C11.3984 25.5 10.6726 24.3505 11.1466 23.3551Z" stroke="#966CEE"/>
<path d="M23.6667 22L27.2953 23.4514C27.9522 23.7142 28.6667 23.2304 28.6667 22.523V19.7475C28.6667 19.4823 28.5613 19.228 28.3738 19.0404L24.3334 15" stroke="#966CEE"/>
<path d="M8.66669 22L4.68448 23.4933C4.03073 23.7385 3.33335 23.2552 3.33335 22.557V19.7475C3.33335 19.4823 3.43871 19.228 3.62625 19.0404L7.66669 15" stroke="#966CEE"/>
</svg>
