<svg width="32" height="32" viewBox="0 0 32 32" fill="none" xmlns="http://www.w3.org/2000/svg">
<path d="M10.8174 21.3334L16.6663 27.3334L27.3799 16.343C27.9992 15.7081 28.4905 14.9541 28.8256 14.1243C29.1608 13.2945 29.3333 12.405 29.3333 11.5068C29.3333 10.6086 29.1608 9.71916 28.8256 8.88934C28.4905 8.05952 27.9992 7.30558 27.3799 6.67059C26.7609 6.03529 26.0259 5.53133 25.217 5.1875C24.4081 4.84366 23.5411 4.66669 22.6654 4.66669C21.7898 4.66669 20.9228 4.84366 20.1139 5.1875C19.305 5.53133 18.57 6.03529 17.951 6.67059L16.6663 7.98843L15.3817 6.67059C14.1313 5.38794 12.4355 4.66735 10.6672 4.66735C8.89898 4.66735 7.20314 5.38794 5.95279 6.67059C4.70244 7.95323 4 9.69288 4 11.5068C4 12.8803 4.40273 14.2112 5.1411 15.3334" stroke="#966CEE" stroke-linecap="round" stroke-linejoin="round"/>
<path d="M2.66669 18H10.6667L13.3334 12L16.6667 20L19.3334 14.6667H22.6667" stroke="#CAC3F8" stroke-linecap="round" stroke-linejoin="round"/>
</svg>
