<svg width="32" height="32" viewBox="0 0 32 32" fill="none" xmlns="http://www.w3.org/2000/svg">
<path d="M23.5239 13.4131C25.5454 17.4142 24.8849 22.423 21.5425 25.7655C17.3769 29.9311 10.6231 29.9311 6.45751 25.7655C2.29191 21.5999 2.29192 14.8461 6.45751 10.6805C9.79997 7.33806 14.8088 6.67759 18.8098 8.6991" stroke="#966CEE" stroke-linecap="round"/>
<path d="M20.4405 16.4966C21.0344 18.7207 20.4589 21.1922 18.7141 22.937C16.1106 25.5405 11.8895 25.5405 9.286 22.937C6.6825 20.3336 6.6825 16.1125 9.286 13.509C11.0309 11.7641 13.5023 11.1886 15.7264 11.7826" stroke="#966CEE" stroke-linecap="round"/>
<path d="M23.4281 8.79495L14.9428 17.2802M23.4281 8.79495L26.2565 9.73776L29.5563 6.43792L26.7279 5.49511L25.7851 2.66669L22.4853 5.96652L23.4281 8.79495Z" stroke="#CAC3F8" stroke-linejoin="round"/>
<path d="M15.532 19.7551C14.6859 20.6012 13.3141 20.6012 12.4679 19.7551C11.6218 18.9089 11.6218 17.5371 12.4679 16.6909C13.3141 15.8448 14.6859 15.8448 15.532 16.6909C16.3782 17.5371 16.3782 18.9089 15.532 19.7551Z" stroke="#CAC3F8"/>
</svg>
