<svg width="32" height="32" viewBox="0 0 32 32" fill="none" xmlns="http://www.w3.org/2000/svg">
<path d="M25.8995 5.43384L21.1855 10.1479" stroke="#CAC3F8"/>
<path d="M8.45752 16.9833L14.3501 22.8758L11.4038 25.8221C9.77661 27.4493 7.13843 27.4493 5.51124 25.8221C3.88406 24.1949 3.88406 21.5568 5.51124 19.9296L8.45752 16.9833Z" stroke="#966CEE"/>
<rect x="9.40033" y="10.3836" width="16.3333" height="5.66667" rx="2.83333" transform="rotate(45 9.40033 10.3836)" stroke="#966CEE"/>
<path d="M19.7712 20.9902L22.6892 20.666C24.0838 20.511 25.1846 19.4102 25.3396 18.0156L26.4282 8.21812C26.6405 6.30737 25.026 4.69286 23.1152 4.90517L13.3177 5.99378C11.9232 6.14873 10.8223 7.2496 10.6674 8.64414L10.3432 11.5621" stroke="#966CEE"/>
<ellipse cx="19.7712" cy="11.5621" rx="2.66667" ry="2.66667" transform="rotate(45 19.7712 11.5621)" stroke="#CAC3F8"/>
</svg>
