<svg width="32" height="32" viewBox="0 0 32 32" fill="none" xmlns="http://www.w3.org/2000/svg">
<path d="M12 12.3333C12.3265 10.8788 13.0204 9.69695 14 9.33331" stroke="#CAC3F8"/>
<path d="M20 12.3333C19.6735 10.8788 18.9796 9.69695 18 9.33331" stroke="#CAC3F8"/>
<circle cx="16" cy="7.33333" r="2.83333" stroke="#CAC3F8"/>
<circle cx="16" cy="7.33333" r="6.83333" stroke="#966CEE"/>
<path d="M20.6667 29.6666C20.9932 28.2121 21.6871 27.0303 22.6667 26.6666" stroke="#CAC3F8"/>
<path d="M28.6667 29.6666C28.3401 28.2121 27.6462 27.0303 26.6667 26.6666" stroke="#CAC3F8"/>
<circle cx="24.6667" cy="24.6666" r="2.83333" stroke="#CAC3F8"/>
<circle cx="24.6667" cy="24.6666" r="6.83333" stroke="#966CEE"/>
<path d="M3.33333 29.6666C3.65986 28.2121 4.35374 27.0303 5.33333 26.6666" stroke="#CAC3F8"/>
<path d="M11.3333 29.6666C11.0068 28.2121 10.3129 27.0303 9.33333 26.6666" stroke="#CAC3F8"/>
<path d="M10.1667 24.6666C10.1667 26.2315 8.89814 27.5 7.33333 27.5C5.76853 27.5 4.5 26.2315 4.5 24.6666C4.5 23.1018 5.76853 21.8333 7.33333 21.8333C8.89814 21.8333 10.1667 23.1018 10.1667 24.6666Z" stroke="#CAC3F8"/>
<path d="M14.1667 24.6666C14.1667 28.4406 11.1073 31.5 7.33333 31.5C3.55939 31.5 0.5 28.4406 0.5 24.6666C0.5 20.8927 3.55939 17.8333 7.33333 17.8333C11.1073 17.8333 14.1667 20.8927 14.1667 24.6666Z" stroke="#966CEE"/>
<path d="M16 14V18M16 18L12.6667 20M16 18L19.3333 20" stroke="#966CEE"/>
</svg>
