<svg width="32" height="32" viewBox="0 0 32 32" fill="none" xmlns="http://www.w3.org/2000/svg">
<path d="M8.16667 22V27.3333C8.16667 28.5299 7.19662 29.5 6 29.5C4.80339 29.5 3.83334 28.5299 3.83334 27.3333V22C3.83334 20.8034 4.80339 19.8333 6 19.8333C7.19662 19.8333 8.16667 20.8034 8.16667 22Z" stroke="#966CEE"/>
<path d="M21.5 21.3334V27.3334C21.5 28.53 20.53 29.5 19.3333 29.5C18.1367 29.5 17.1667 28.53 17.1667 27.3334V21.3334C17.1667 20.1367 18.1367 19.1667 19.3333 19.1667C20.53 19.1667 21.5 20.1367 21.5 21.3334Z" stroke="#966CEE"/>
<path d="M14.8333 18V27.3333C14.8333 28.5299 13.8633 29.5 12.6667 29.5C11.47 29.5 10.5 28.5299 10.5 27.3333V18C10.5 16.8034 11.4701 15.8333 12.6667 15.8333C13.8633 15.8333 14.8333 16.8034 14.8333 18Z" stroke="#966CEE"/>
<path d="M28.1667 15.3334V27.3334C28.1667 28.53 27.1966 29.5 26 29.5C24.8034 29.5 23.8333 28.53 23.8333 27.3334V15.3334C23.8333 14.1367 24.8034 13.1667 26 13.1667C27.1966 13.1667 28.1667 14.1367 28.1667 15.3334Z" stroke="#966CEE"/>
<path d="M4 15.3333L12.6667 10L19.3333 14L28 4M28 4L24.3333 4.66667M28 4V7.66667" stroke="#CAC3F8" stroke-linecap="round" stroke-linejoin="round"/>
</svg>
