<svg width="32" height="32" viewBox="0 0 32 32" fill="none" xmlns="http://www.w3.org/2000/svg">
<path d="M8.66667 8.66667V6.66667C8.66667 5.19391 9.86058 4 11.3333 4H20.6667C22.1394 4 23.3333 5.19391 23.3333 6.66667V8.66667" stroke="#B298EE"/>
<path d="M11.3333 9.33335V7.33335C11.3333 6.96516 11.6318 6.66669 12 6.66669H20C20.3682 6.66669 20.6667 6.96516 20.6667 7.33335V9.33335" stroke="#B298EE"/>
<path d="M8.15007 20H6C4.15905 20 2.66667 18.5076 2.66667 16.6666V12.6666C2.66667 10.8257 4.15905 9.33331 6 9.33331H26C27.841 9.33331 29.3333 10.8257 29.3333 12.6666V16.6666C29.3333 18.5076 27.841 20 26 20H23.8499" stroke="#966CEE"/>
<path d="M28 19.3333V25.3333C28 27.1743 26.5076 28.6666 24.6667 28.6666H7.33333C5.49238 28.6666 4 27.1743 4 25.3333V19.3333" stroke="#966CEE"/>
<path d="M10.6667 20H21.3333" stroke="#966CEE"/>
<path d="M7.83334 19C7.83334 17.9875 8.65415 17.1667 9.66667 17.1667C10.6792 17.1667 11.5 17.9875 11.5 19V21C11.5 22.0125 10.6792 22.8334 9.66667 22.8334C8.65415 22.8334 7.83334 22.0125 7.83334 21V19Z" stroke="#966CEE"/>
<path d="M20.5 19C20.5 17.9875 21.3208 17.1667 22.3333 17.1667C23.3459 17.1667 24.1667 17.9875 24.1667 19V21C24.1667 22.0125 23.3459 22.8334 22.3333 22.8334C21.3208 22.8334 20.5 22.0125 20.5 21V19Z" stroke="#966CEE"/>
</svg>
