<svg width="32" height="32" viewBox="0 0 32 32" fill="none" xmlns="http://www.w3.org/2000/svg">
<path d="M17.3333 8.66663H25.3333" stroke="#CAC3F8"/>
<path d="M6.66667 8.66663H14.6667" stroke="#CAC3F8"/>
<rect x="14.6667" y="6" width="2.66667" height="18.6667" stroke="#966CEE"/>
<circle cx="16" cy="3.99998" r="2.16667" stroke="#966CEE"/>
<path d="M17.3333 24.6666L18.6667 26.6666H19.3333C20.8061 26.6666 22 27.8605 22 29.3333V29.3333H10V29.3333C10 27.8605 11.1939 26.6666 12.6667 26.6666H13.3333L14.6667 24.6666" stroke="#966CEE"/>
<path d="M30.4175 16.8333H20.2492L25.3333 8.92463L30.4175 16.8333Z" stroke="#CAC3F8"/>
<path d="M11.7508 16.8333H1.5825L6.66667 8.92463L11.7508 16.8333Z" stroke="#CAC3F8"/>
<path d="M20 17.3333V18.3333C20 19.9902 21.3431 21.3333 23 21.3333H27.6667C29.3235 21.3333 30.6667 19.9902 30.6667 18.3333V17.3333" stroke="#CAC3F8"/>
<path d="M1.33334 17.3333V18.3333C1.33334 19.9902 2.67649 21.3333 4.33334 21.3333H9.00001C10.6569 21.3333 12 19.9902 12 18.3333V17.3333" stroke="#CAC3F8"/>
</svg>
