<svg width="32" height="32" viewBox="0 0 32 32" fill="none" xmlns="http://www.w3.org/2000/svg">
<path d="M4.5 7.33333C4.5 5.76853 5.76853 4.5 7.33333 4.5H13.3333C14.8981 4.5 16.1667 5.76853 16.1667 7.33333V24.8928C16.1667 25.028 16.154 25.1628 16.1289 25.2956L15.7582 27.2553L15.1557 26.2185C14.5889 25.2431 13.5459 24.6429 12.4177 24.6429H7.33334C5.76853 24.6429 4.5 23.3743 4.5 21.8095V7.33333Z" stroke="#966CEE"/>
<path d="M15.8333 7.33333C15.8333 5.76853 17.1019 4.5 18.6667 4.5H24.6667C26.2315 4.5 27.5 5.76853 27.5 7.33333V21.8095C27.5 23.3743 26.2315 24.6429 24.6667 24.6429H19.5823C18.4541 24.6429 17.4111 25.2431 16.8443 26.2185L16.2419 27.2553L15.8711 25.2956C15.846 25.1628 15.8333 25.028 15.8333 24.8928V7.33333Z" stroke="#966CEE"/>
<path d="M8 8.66669L12.6667 8.66669" stroke="#CAC3F8" stroke-linecap="round"/>
<path d="M19.3333 12H24" stroke="#CAC3F8" stroke-linecap="round"/>
<path d="M19.3333 8.66669H24" stroke="#CAC3F8" stroke-linecap="round"/>
<path d="M8 12L12.6667 12" stroke="#CAC3F8" stroke-linecap="round"/>
<path d="M8 15.3333L12.6667 15.3333" stroke="#CAC3F8" stroke-linecap="round"/>
<path d="M19.3333 15.3333L24 15.3333" stroke="#CAC3F8" stroke-linecap="round"/>
<path d="M19.3333 18.6667H21.3333" stroke="#CAC3F8" stroke-linecap="round"/>
</svg>
