<svg width="32" height="32" fill="none" xmlns="http://www.w3.org/2000/svg"><path d="M16.667 23.333L14.935 8m1.732 15.333H12m4.667 0l-3.122 4.122M14.936 8v0a4.659 4.659 0 00-4.612-4h-1.31a5 5 0 00-4.999 5.014l.026 9.333a5 5 0 005 4.986H12M14.935 8h8.026a5 5 0 015 4.987l.026 10a5 5 0 01-5 5.013h-7.423a3 3 0 01-2.894-2.21L12 23.332" stroke="#966CEE"/><path d="M7.333 17.333l.556-2.857M12 17.333l-.556-2.857m0 0l-.851-4.38a.944.944 0 00-.926-.763v0c-.452 0-.84.32-.927.764l-.851 4.38m3.555 0H7.89m10.777.856h1.11m5.556 0h-1.11m-2.223 0V14m0 1.333h2.222m-2.222 0h-2.222m4.444 0c-.463 1.397-2 4.743-4.889 6m.445-6c.278 1.223 2.389 4.69 4.889 6" stroke="#CAC3F8" stroke-linecap="round"/></svg>