<svg width="32" height="32" fill="none" xmlns="http://www.w3.org/2000/svg"><circle cx="16" cy="14" r="2.833" stroke="#CAC3F8"/><path d="M18.651 28.182L16 31.237l-2.651-3.055a2.507 2.507 0 01-.205-3.015h5.712a2.506 2.506 0 01-.205 3.015z" stroke="#CAC3F8"/><path d="M15.996.59c2.235 1.382 4.016 3.357 5.38 5.577h-10.5c1.333-2.222 3.037-4.196 5.12-5.578zm-5.709 6.577h11.666c1.852 3.413 2.76 7.218 2.87 10.18.055 1.523-.101 2.784-.42 3.644-.327.878-.748 1.176-1.15 1.176H8.72c-.404 0-.83-.304-1.152-1.198-.316-.874-.46-2.156-.379-3.7.156-2.952 1.131-6.722 3.098-10.102z" stroke="#966CEE"/><path d="M11.147 23.355l.317-.667a1.5 1.5 0 011.354-.855h6.364a1.5 1.5 0 011.354.855l.317.667A1.5 1.5 0 0119.5 25.5h-6.998a1.5 1.5 0 01-1.354-2.145zM23.667 22l3.628 1.451a1 1 0 001.372-.928v-2.776a1 1 0 00-.293-.707L24.334 15M8.667 22l-3.983 1.493a1 1 0 01-1.35-.936v-2.81a1 1 0 01.292-.707L7.666 15" stroke="#966CEE"/></svg>