<svg width="32" height="32" fill="none" xmlns="http://www.w3.org/2000/svg"><path d="M10.817 21.333l5.85 6 10.713-10.99a6.85 6.85 0 001.446-2.219 6.991 6.991 0 000-5.235 6.85 6.85 0 00-1.446-2.218 6.657 6.657 0 00-2.163-1.484 6.52 6.52 0 00-5.103 0 6.657 6.657 0 00-2.163 1.484l-1.285 1.317-1.284-1.317a6.583 6.583 0 00-4.715-2.004c-1.768 0-3.464.72-4.714 2.004A6.93 6.93 0 004 11.507c0 1.373.403 2.704 1.141 3.826" stroke="#966CEE" stroke-linecap="round" stroke-linejoin="round"/><path d="M2.667 18h8l2.666-6 3.334 8 2.666-5.333h3.334" stroke="#CAC3F8" stroke-linecap="round" stroke-linejoin="round"/></svg>