<svg width="32" height="32" fill="none" xmlns="http://www.w3.org/2000/svg"><path d="M23.524 13.413c2.021 4.001 1.36 9.01-1.982 12.352-4.165 4.166-10.919 4.166-15.084 0-4.166-4.165-4.166-10.919 0-15.085C9.8 7.338 14.808 6.679 18.81 8.7m1.63 7.797a6.667 6.667 0 11-4.714-4.714" stroke="#966CEE" stroke-linecap="round"/><path d="M23.428 8.795l-8.485 8.485m8.485-8.485l2.828.943 3.3-3.3-2.828-.943-.943-2.828-3.3 3.3.943 2.828z" stroke="#CAC3F8" stroke-linejoin="round"/><path d="M15.532 19.755a2.167 2.167 0 11-3.064-3.064 2.167 2.167 0 013.064 3.064z" stroke="#CAC3F8"/></svg>