<svg width="32" height="32" fill="none" xmlns="http://www.w3.org/2000/svg"><path d="M25.9 5.434l-4.714 4.714" stroke="#CAC3F8"/><path d="M8.458 16.983l5.892 5.893-2.946 2.946A4.167 4.167 0 115.51 19.93l2.947-2.947z" stroke="#966CEE"/><rect x="9.4" y="10.384" width="16.333" height="5.667" rx="2.833" transform="rotate(45 9.4 10.384)" stroke="#966CEE"/><path d="M19.771 20.99l2.918-.324a3 3 0 002.65-2.65l1.09-9.798a3 3 0 00-3.314-3.313l-9.797 1.089a3 3 0 00-2.65 2.65l-.325 2.918" stroke="#966CEE"/><circle cx="19.771" cy="11.562" transform="rotate(45 19.771 11.562)" stroke="#CAC3F8" r="2.667"/></svg>