<svg width="32" height="32" fill="none" xmlns="http://www.w3.org/2000/svg"><path d="M8.167 22v5.333a2.167 2.167 0 01-4.334 0V22a2.167 2.167 0 014.334 0zm13.333-.667v6a2.167 2.167 0 11-4.333 0v-6a2.167 2.167 0 114.333 0zM14.833 18v9.333a2.167 2.167 0 11-4.333 0V18a2.167 2.167 0 014.333 0zm13.334-2.667v12a2.167 2.167 0 01-4.334 0v-12a2.167 2.167 0 114.334 0z" stroke="#966CEE"/><path d="M4 15.333L12.667 10l6.666 4L28 4m0 0l-3.667.667M28 4v3.667" stroke="#CAC3F8" stroke-linecap="round" stroke-linejoin="round"/></svg>