<svg width="32" height="32" fill="none" xmlns="http://www.w3.org/2000/svg"><path d="M8.667 8.667v-2A2.667 2.667 0 0111.333 4h9.334a2.667 2.667 0 012.666 2.667v2" stroke="#B298EE"/><path d="M11.333 9.333v-2c0-.368.299-.666.667-.666h8c.368 0 .667.298.667.666v2" stroke="#B298EE"/><path d="M8.15 20H6a3.333 3.333 0 01-3.333-3.333v-4A3.333 3.333 0 016 9.333h20a3.333 3.333 0 013.333 3.334v4A3.333 3.333 0 0126 20h-2.15" stroke="#966CEE"/><path d="M28 19.333v6a3.333 3.333 0 01-3.333 3.334H7.333A3.333 3.333 0 014 25.333v-6m6.667.667h10.666" stroke="#966CEE"/><path d="M7.833 19a1.833 1.833 0 013.667 0v2a1.833 1.833 0 11-3.667 0v-2zM20.5 19a1.833 1.833 0 013.667 0v2a1.833 1.833 0 01-3.667 0v-2z" stroke="#966CEE"/></svg>