<svg width="32" height="32" fill="none" xmlns="http://www.w3.org/2000/svg"><path d="M17.333 8.667h8m-18.666 0h8" stroke="#CAC3F8"/><path stroke="#966CEE" d="M14.667 6h2.667v18.667h-2.667z"/><circle cx="16" cy="4" r="2.167" stroke="#966CEE"/><path d="M17.333 24.667l1.334 2h.666A2.667 2.667 0 0122 29.333v0H10v0a2.667 2.667 0 012.667-2.666h.666l1.334-2" stroke="#966CEE"/><path d="M30.418 16.833h-10.17l5.084-7.908 5.085 7.908zm-18.668 0H1.583l5.085-7.908 5.084 7.908zm8.25.5v1a3 3 0 003 3h4.667a3 3 0 003-3v-1m-29.334 0v1a3 3 0 003 3H9a3 3 0 003-3v-1" stroke="#CAC3F8"/></svg>