<svg width="32" height="32" fill="none" xmlns="http://www.w3.org/2000/svg"><path d="M4.5 7.333A2.833 2.833 0 017.333 4.5h6a2.833 2.833 0 012.834 2.833v17.56c0 .135-.013.27-.038.403l-.37 1.96-.603-1.038a3.167 3.167 0 00-2.738-1.575H7.333A2.833 2.833 0 014.5 21.809V7.333z" stroke="#966CEE"/><path d="M15.833 7.333A2.833 2.833 0 0118.667 4.5h6A2.833 2.833 0 0127.5 7.333V21.81a2.833 2.833 0 01-2.833 2.834h-5.085c-1.128 0-2.17.6-2.738 1.575l-.602 1.037-.37-1.96a2.169 2.169 0 01-.039-.402V7.333z" stroke="#966CEE"/><path d="M8 8.667h4.667M19.333 12H24m-4.667-3.333H24M8 12h4.667M8 15.333h4.667m6.666 0H24m-4.667 3.334h2" stroke="#CAC3F8" stroke-linecap="round"/></svg>