<svg width="136" height="36" viewBox="0 0 136 36" fill="none" xmlns="http://www.w3.org/2000/svg">
<path d="M12.109 35.0093C13.9548 35.6513 15.9369 36 18 36C27.9411 36 36 27.9038 36 17.9166C36 10.2965 31.3085 3.77728 24.6691 1.11504C25.957 4.1954 25.3483 7.69732 22.9827 10.9689C19.4087 15.9118 13.9562 19.0699 8.85854 20.9973C6.05458 22.0574 3.26227 22.7814 0.788094 23.2253C2.21121 27.8878 4.42379 30.6031 9.47251 30.0445C12.8186 29.6743 16.7137 27.8947 20.7066 23.7747L18.5114 22.0265L28.8409 17.6724L26.8977 28.705L24.8928 27.1084C20.7722 31.4845 16.4029 34.0378 12.109 35.0093Z" fill="#966CEE"/>
<path d="M15.082 0.0696489C6.52854 1.47042 0 8.92758 0 17.9166C0 17.9241 4.50078e-06 17.9316 1.34998e-05 17.939C2.10687 17.5525 4.52983 16.9252 6.98536 15.9969C11.5712 14.263 15.954 11.5989 18.6799 7.82887C20.7869 4.91488 19.7056 -0.687497 15.082 0.0696489Z" fill="#966CEE"/>
<path d="M59.832 23.7361V26.6401H48V9.60012H59.616V12.5041H51.312V16.6081H58.488V19.2961H51.312V23.7361H59.832Z" fill="#392B4B"/>
<path d="M61.0997 20.3521C61.0997 19.1361 61.3397 18.0401 61.8197 17.0641C62.2997 16.0721 62.9637 15.2881 63.8117 14.7121C64.6597 14.1361 65.6277 13.8481 66.7157 13.8481C67.6437 13.8481 68.4757 14.0801 69.2117 14.5441C69.9637 14.9921 70.5477 15.5681 70.9637 16.2721V9.12012H74.1797V23.0401C74.1797 23.3761 74.2357 23.6161 74.3477 23.7601C74.4597 23.9041 74.6517 23.9921 74.9237 24.0241V26.6401C74.3637 26.7521 73.9077 26.8081 73.5557 26.8081C72.9797 26.8081 72.4997 26.6641 72.1157 26.3761C71.7477 26.0881 71.5397 25.7121 71.4917 25.2481L71.4437 24.4561C70.9797 25.2401 70.3477 25.8401 69.5477 26.2561C68.7637 26.6721 67.9397 26.8801 67.0757 26.8801C66.2117 26.8801 65.4117 26.7121 64.6757 26.3761C63.9557 26.0401 63.3237 25.5761 62.7797 24.9841C62.2517 24.3921 61.8357 23.7041 61.5317 22.9201C61.2437 22.1201 61.0997 21.2641 61.0997 20.3521ZM70.9637 22.0321V19.0321C70.8037 18.5681 70.5477 18.1521 70.1957 17.7841C69.8437 17.4161 69.4517 17.1281 69.0197 16.9201C68.5877 16.6961 68.1557 16.5841 67.7237 16.5841C67.2277 16.5841 66.7797 16.6881 66.3797 16.8961C65.9797 17.1041 65.6277 17.3841 65.3237 17.7361C65.0357 18.0881 64.8117 18.4961 64.6517 18.9601C64.5077 19.4241 64.4357 19.9121 64.4357 20.4241C64.4357 20.9361 64.5157 21.4241 64.6757 21.8881C64.8517 22.3361 65.0997 22.7281 65.4197 23.0641C65.7397 23.4001 66.1077 23.6641 66.5237 23.8561C66.9557 24.0481 67.4197 24.1441 67.9157 24.1441C68.2197 24.1441 68.5237 24.0961 68.8277 24.0001C69.1477 23.8881 69.4437 23.7441 69.7157 23.5681C70.0037 23.3761 70.2517 23.1521 70.4597 22.8961C70.6837 22.6241 70.8517 22.3361 70.9637 22.0321Z" fill="#392B4B"/>
<path d="M92.8896 14.0641H95.9376L90.6816 26.6401H87.9936L85.8816 21.2401L83.8176 26.6401H81.1056L75.8736 14.0641H78.8976L82.6416 23.5681L84.1056 19.4641L81.9216 14.0881H84.5856L85.8816 17.9281L87.2016 14.0881H89.8656L87.6816 19.4641L89.1696 23.5681L92.8896 14.0641Z" fill="#392B4B"/>
<path d="M97.4224 26.6401V14.0641H100.638V26.6401H97.4224ZM97.4224 12.3121V9.12012H100.638V12.3121H97.4224Z" fill="#392B4B"/>
<path d="M109.396 26.8801C108.372 26.8801 107.452 26.7121 106.636 26.3761C105.82 26.0241 105.124 25.5441 104.548 24.9361C103.972 24.3121 103.524 23.6081 103.204 22.8241C102.9 22.0401 102.748 21.2161 102.748 20.3521C102.748 19.1681 103.012 18.0881 103.54 17.1121C104.084 16.1201 104.852 15.3281 105.844 14.7361C106.836 14.1441 108.012 13.8481 109.372 13.8481C110.732 13.8481 111.9 14.1441 112.876 14.7361C113.852 15.3281 114.58 16.1041 115.06 17.0641L111.916 18.0241C111.644 17.5601 111.284 17.2081 110.836 16.9681C110.388 16.7121 109.892 16.5841 109.348 16.5841C108.74 16.5841 108.18 16.7441 107.668 17.0641C107.172 17.3681 106.78 17.8081 106.492 18.3841C106.204 18.9441 106.06 19.6001 106.06 20.3521C106.06 21.0881 106.204 21.7441 106.492 22.3201C106.796 22.8801 107.196 23.3281 107.692 23.6641C108.188 23.9841 108.74 24.1441 109.348 24.1441C109.732 24.1441 110.092 24.0801 110.428 23.9521C110.78 23.8241 111.092 23.6481 111.364 23.4241C111.636 23.2001 111.836 22.9441 111.964 22.6561L115.108 23.6161C114.82 24.2401 114.396 24.8001 113.836 25.2961C113.292 25.7921 112.644 26.1841 111.892 26.4721C111.156 26.7441 110.324 26.8801 109.396 26.8801Z" fill="#392B4B"/>
<path d="M116.222 22.9201C116.222 22.1041 116.446 21.3921 116.894 20.7841C117.358 20.1601 117.998 19.6801 118.814 19.3441C119.63 19.0081 120.566 18.8401 121.622 18.8401C122.15 18.8401 122.686 18.8801 123.23 18.9601C123.774 19.0401 124.246 19.1681 124.646 19.3441V18.6721C124.646 17.8721 124.406 17.2561 123.926 16.8241C123.462 16.3921 122.766 16.1761 121.838 16.1761C121.15 16.1761 120.494 16.2961 119.87 16.5361C119.246 16.7761 118.59 17.1281 117.902 17.5921L116.87 15.4801C117.702 14.9361 118.55 14.5281 119.414 14.2561C120.294 13.9841 121.214 13.8481 122.174 13.8481C123.966 13.8481 125.358 14.2961 126.35 15.1921C127.358 16.0881 127.862 17.3681 127.862 19.0321V23.0401C127.862 23.3761 127.918 23.6161 128.03 23.7601C128.158 23.9041 128.358 23.9921 128.63 24.0241V26.6401C128.342 26.6881 128.078 26.7281 127.838 26.7601C127.614 26.7921 127.422 26.8081 127.262 26.8081C126.622 26.8081 126.134 26.6641 125.798 26.3761C125.478 26.0881 125.278 25.7361 125.198 25.3201L125.126 24.6721C124.582 25.3761 123.902 25.9201 123.086 26.3041C122.27 26.6881 121.438 26.8801 120.59 26.8801C119.758 26.8801 119.006 26.7121 118.334 26.3761C117.678 26.0241 117.158 25.5521 116.774 24.9601C116.406 24.3521 116.222 23.6721 116.222 22.9201ZM124.046 23.5681C124.222 23.3761 124.366 23.1841 124.478 22.9921C124.59 22.8001 124.646 22.6241 124.646 22.4641V21.1921C124.262 21.0321 123.846 20.9121 123.398 20.8321C122.95 20.7361 122.526 20.6881 122.126 20.6881C121.294 20.6881 120.606 20.8721 120.062 21.2401C119.534 21.5921 119.27 22.0641 119.27 22.6561C119.27 22.9761 119.358 23.2801 119.534 23.5681C119.71 23.8561 119.966 24.0881 120.302 24.2641C120.638 24.4401 121.038 24.5281 121.502 24.5281C121.982 24.5281 122.454 24.4401 122.918 24.2641C123.382 24.0721 123.758 23.8401 124.046 23.5681Z" fill="#392B4B"/>
</svg>
